<?xml version="1.0" encoding="utf-8"?>
<!-- Generator: Adobe Illustrator 15.1.0, SVG Export Plug-In . SVG Version: 6.00 Build 0)  -->
<!DOCTYPE svg PUBLIC "-//W3C//DTD SVG 1.1//EN" "http://www.w3.org/Graphics/SVG/1.1/DTD/svg11.dtd">
<svg version="1.1" id="Layer_1" xmlns="http://www.w3.org/2000/svg" xmlns:xlink="http://www.w3.org/1999/xlink" x="0px" y="0px"
	 width="751.794px" height="146.482px" viewBox="17.422 223.902 751.794 146.482"
	 enable-background="new 17.422 223.902 751.794 146.482" xml:space="preserve">
<g>
	<g>
		<path fill="#E58E1A" d="M236.349,312.547h5.63v56.36h-5.63V312.547z"/>
		<path fill="#E58E1A" d="M254.6,312.547h7.177l39.397,50.589v-50.589h5.468v56.36h-7.491l-39.092-50.591v50.591H254.6V312.547z"/>
		<path fill="#E58E1A" d="M335.229,317.696h-21.765v-5.149h49.153v5.149h-21.773v51.207h-5.615V317.696z"/>
		<path fill="#E58E1A" d="M369.345,312.547h43.3v5.227h-37.684v19.746h34.8v5.316h-34.8v20.755h37.684v5.316h-43.3V312.547z"/>
		<path fill="#E58E1A" d="M421.073,312.547h27.001c13.414,0,20.206,5.066,20.206,15.145c0,7.417-2.97,11.787-9.754,14.043
			c6.392,1.021,7.88,3.986,8.659,10.706c0.864,7.491,0.392,13.182,2.734,16.467h-6.562c-1.717-5.154-1.245-10.772-1.952-16.467
			c-0.696-5.771-3.973-7.733-10.99-7.733h-23.719v24.2h-5.622v-56.36H421.073z M426.694,317.769v21.628h20.751
			c10.377,0,15.143-2.892,15.143-10.854c0-8.342-4.993-10.77-15.846-10.77h-20.048V317.769z"/>
		<path fill="#E58E1A" d="M501.428,312.547h6.469l25.678,56.36h-5.696l-7.88-17.412h-30.821l-7.958,17.412h-5.771L501.428,312.547z
			 M517.5,346.035l-12.873-28.809l-12.951,28.809H517.5z"/>
		<path fill="#E58E1A" d="M564.38,316.521c-14.738,0-23.786,9.133-23.786,24.2c0,14.912,9.046,24.127,22.699,24.127
			c11.306,0,19.969-6.565,22.241-17.1h6.003c-2.576,13.896-13.343,22.636-28.084,22.636c-17.25,0-28.561-11.549-28.561-29.663
			c0-18.335,11.084-29.655,29.574-29.655c14.662,0,24.342,7.562,26.136,19.895h-5.697
			C582.711,321.758,575.389,316.521,564.38,316.521z"/>
		<path fill="#E58E1A" d="M614.606,317.696h-21.762v-5.149h49.153v5.149h-21.771v51.219h-5.621V317.696z"/>
		<path fill="#E58E1A" d="M648.92,312.547h5.611v56.368h-5.611V312.547z"/>
		<path fill="#E58E1A" d="M661.442,312.547h6.171l22.614,51.523l22.628-51.523h6.17l-25.276,56.368h-7.108L661.442,312.547z"/>
		<path fill="#E58E1A" d="M725.913,312.547h43.303v5.227h-37.688v19.748h34.795v5.314h-34.795v20.759h37.688v5.32h-43.303V312.547z"
			/>
	</g>
	<g>
		<polygon fill="#3B6E8F" points="289.066,252.225 248.323,252.225 248.323,223.904 236.314,223.904 236.314,296.245 
			248.323,296.245 248.323,263.56 289.066,263.56 289.066,296.245 301.076,296.245 301.076,223.904 289.066,223.904 		"/>
		<path fill="#3B6E8F" d="M367.057,264.847c0,14.958-6.188,21.627-20.073,21.627c-13.887,0-20.076-6.669-20.076-21.627v-40.945
			h-12.016v45.134c0,19.015,11.1,29.066,32.092,29.066c20.986,0,32.083-10.051,32.083-29.066v-45.134h-12.01V264.847
			L367.057,264.847z"/>
		<path fill="#3B6E8F" d="M446.543,257.857c6.014-3.226,9.062-8.319,9.062-15.201c0-11.914-8.147-18.753-22.353-18.753h-40.157
			v72.343h39.185c17.469,0,25.958-7.019,25.958-21.477C458.237,266.264,454.112,260.35,446.543,257.857z M429.064,253.102h-23.968
			v-18.265h26.107c8.802,0,12.396,2.636,12.396,9.087C443.598,250.703,439.793,253.102,429.064,253.102z M405.097,264.335H431.4
			c10.115,0,14.239,3.11,14.239,10.729c0,6.799-4.545,9.564-15.696,9.564h-24.845v-20.293H405.097z"/>
		<path fill="#3B6E8F" d="M522.404,257.857c6.011-3.226,9.059-8.319,9.059-15.201c0-11.914-8.151-18.753-22.354-18.753h-40.164
			v72.343h39.19c17.464,0,25.955-7.019,25.955-21.477C534.091,266.26,529.971,260.35,522.404,257.857z M504.924,253.102h-23.975
			v-18.265h26.113c8.795,0,12.39,2.636,12.39,9.087C519.452,250.703,515.648,253.102,504.924,253.102z M480.95,264.335h26.309
			c10.11,0,14.236,3.11,14.236,10.729c0,6.799-4.541,9.564-15.694,9.564h-24.849v-20.293H480.95z"/>
		<path fill="#3B6E8F" d="M581.047,223.904H569.3l-34.368,72.343h12.818l9.346-20.044h34.575l8.946,20.044h12.59l-31.889-71.722
			L581.047,223.904z M586.64,264.97h-24.384l12.542-26.446L586.64,264.97z"/>
		<path fill="#3B6E8F" d="M682.876,285.985l-0.879-11.377c-0.538-7.592-3.021-11.732-8.351-13.521
			c6.387-3.108,9.625-8.796,9.625-16.966c0-13.036-9.219-20.216-25.962-20.216h-38.021v72.342h11.916v-30.162h25.329
			c9.63,0,12.315,2.36,13.072,11.504l0.879,10.383c0.199,3.157,0.51,5.662,1.343,7.639l0.272,0.635h14.29l-1.176-1.64
			C683.377,292.032,683.132,289.092,682.876,285.985z M631.204,234.46h21.341c14.337,0,18.712,2.436,18.712,10.444
			c0,7.798-4.502,10.432-17.84,10.432h-22.215V234.46H631.204z"/>
		<path fill="#3B6E8F" d="M756.99,230.644c-8.044-6.253-17.075-6.74-28.959-6.74h-31.992v72.343h31.992
			c11.88,0,20.915-0.479,28.959-6.733c7.904-6.186,12.082-16.366,12.082-29.438C769.072,247.003,764.893,236.826,756.99,230.644z
			 M731.239,285.313h-23.19v-50.568h23.19c8.938,0,14.129,1.336,17.91,4.619c4.71,4.015,7.517,11.728,7.517,20.618
			c0,8.817-2.88,16.759-7.517,20.723C745.367,283.981,740.178,285.313,731.239,285.313z"/>
	</g>
	<g>
		<path fill="#E58E1A" d="M71.096,223.93H17.422l0.148,128.439c0.279,14.111,8.317,16.491,13.148,16.491h40.377V223.93
			L71.096,223.93z"/>
		<path fill="#FDB913" d="M192.868,368.862l-0.147-128.444c-0.279-14.11-8.317-16.488-13.148-16.488h-42.975v50.598H82.903v35.938
			h53.694v58.397H192.868z"/>
	</g>
</g>
</svg>
